<mxfile host="Electron" agent="Mozilla/5.0 (Windows NT 10.0; Win64; x64) AppleWebKit/537.36 (KHTML, like Gecko) draw.io/26.0.9 Chrome/128.0.6613.186 Electron/32.2.5 Safari/537.36" version="26.0.9">
  <diagram name="Page-1" id="mpTnRPQipRy7HkjRoJLR">
    <mxGraphModel dx="862" dy="506" grid="1" gridSize="10" guides="1" tooltips="1" connect="1" arrows="1" fold="1" page="1" pageScale="1" pageWidth="850" pageHeight="1100" math="0" shadow="0">
      <root>
        <mxCell id="0" />
        <mxCell id="1" parent="0" />
        <mxCell id="2aowwQOq8vRHXl7q1TRe-2" value="" style="whiteSpace=wrap;html=1;aspect=fixed;" vertex="1" parent="1">
          <mxGeometry x="110" y="40" width="480" height="480" as="geometry" />
        </mxCell>
        <mxCell id="2aowwQOq8vRHXl7q1TRe-3" value="" style="image;sketch=0;aspect=fixed;html=1;points=[];align=center;fontSize=12;image=img/lib/mscae/Docker.svg;" vertex="1" parent="1">
          <mxGeometry x="140" y="50" width="50" height="41" as="geometry" />
        </mxCell>
        <mxCell id="2aowwQOq8vRHXl7q1TRe-4" value="" style="image;aspect=fixed;html=1;points=[];align=center;fontSize=12;image=img/lib/azure2/containers/Container_Registries.svg;" vertex="1" parent="1">
          <mxGeometry x="145.41" y="120" width="44.59" height="40" as="geometry" />
        </mxCell>
        <mxCell id="2aowwQOq8vRHXl7q1TRe-5" value="" style="image;aspect=fixed;html=1;points=[];align=center;fontSize=12;image=img/lib/azure2/containers/Container_Registries.svg;" vertex="1" parent="1">
          <mxGeometry x="230" y="120" width="66.89" height="60" as="geometry" />
        </mxCell>
        <mxCell id="2aowwQOq8vRHXl7q1TRe-6" value="" style="image;aspect=fixed;html=1;points=[];align=center;fontSize=12;image=img/lib/azure2/containers/Container_Registries.svg;" vertex="1" parent="1">
          <mxGeometry x="340" y="120" width="78.04" height="70" as="geometry" />
        </mxCell>
        <mxCell id="2aowwQOq8vRHXl7q1TRe-7" value="" style="image;aspect=fixed;html=1;points=[];align=center;fontSize=12;image=img/lib/azure2/containers/Container_Registries.svg;" vertex="1" parent="1">
          <mxGeometry x="450" y="110" width="100.34" height="90" as="geometry" />
        </mxCell>
        <mxCell id="2aowwQOq8vRHXl7q1TRe-8" value="Created docker container" style="text;html=1;align=center;verticalAlign=middle;whiteSpace=wrap;rounded=0;" vertex="1" parent="1">
          <mxGeometry x="135" y="180" width="75" height="40" as="geometry" />
        </mxCell>
        <mxCell id="2aowwQOq8vRHXl7q1TRe-9" value="Updated docker container" style="text;html=1;align=center;verticalAlign=middle;whiteSpace=wrap;rounded=0;" vertex="1" parent="1">
          <mxGeometry x="221.89" y="190" width="75" height="40" as="geometry" />
        </mxCell>
        <mxCell id="2aowwQOq8vRHXl7q1TRe-10" value="Installed VI, gir etc.." style="text;html=1;align=center;verticalAlign=middle;whiteSpace=wrap;rounded=0;" vertex="1" parent="1">
          <mxGeometry x="343.03999999999996" y="200" width="75" height="40" as="geometry" />
        </mxCell>
        <mxCell id="2aowwQOq8vRHXl7q1TRe-11" value="Cloned application code and running" style="text;html=1;align=center;verticalAlign=middle;whiteSpace=wrap;rounded=0;" vertex="1" parent="1">
          <mxGeometry x="440" y="200" width="110" height="50" as="geometry" />
        </mxCell>
        <mxCell id="2aowwQOq8vRHXl7q1TRe-12" value="Size keeps increasing and container becomes heavy weight. if the container crash or accidental deletion we need to perform setup again" style="text;html=1;align=center;verticalAlign=middle;whiteSpace=wrap;rounded=0;" vertex="1" parent="1">
          <mxGeometry x="135" y="260" width="385" height="50" as="geometry" />
        </mxCell>
        <mxCell id="2aowwQOq8vRHXl7q1TRe-13" value="" style="image;aspect=fixed;html=1;points=[];align=center;fontSize=12;image=img/lib/azure2/containers/Container_Registries.svg;" vertex="1" parent="1">
          <mxGeometry x="464.26" y="340" width="55.74" height="50" as="geometry" />
        </mxCell>
        <mxCell id="2aowwQOq8vRHXl7q1TRe-14" value="Created docker container" style="text;html=1;align=center;verticalAlign=middle;whiteSpace=wrap;rounded=0;" vertex="1" parent="1">
          <mxGeometry x="454.63" y="410" width="75" height="40" as="geometry" />
        </mxCell>
        <mxCell id="2aowwQOq8vRHXl7q1TRe-17" style="edgeStyle=orthogonalEdgeStyle;rounded=0;orthogonalLoop=1;jettySize=auto;html=1;" edge="1" parent="1" source="2aowwQOq8vRHXl7q1TRe-15" target="2aowwQOq8vRHXl7q1TRe-13">
          <mxGeometry relative="1" as="geometry" />
        </mxCell>
        <mxCell id="2aowwQOq8vRHXl7q1TRe-15" value="" style="image;sketch=0;aspect=fixed;html=1;points=[];align=center;fontSize=12;image=img/lib/mscae/VM_Linux.svg;" vertex="1" parent="1">
          <mxGeometry x="171.89" y="350" width="48.11" height="44.26" as="geometry" />
        </mxCell>
        <mxCell id="2aowwQOq8vRHXl7q1TRe-16" value="Docker host&lt;br&gt;file system drive" style="text;html=1;align=center;verticalAlign=middle;whiteSpace=wrap;rounded=0;" vertex="1" parent="1">
          <mxGeometry x="159.39" y="410" width="75" height="40" as="geometry" />
        </mxCell>
        <mxCell id="2aowwQOq8vRHXl7q1TRe-18" value="system file use as docker volume all the required files and sw installed in that volume" style="text;html=1;align=center;verticalAlign=middle;whiteSpace=wrap;rounded=0;" vertex="1" parent="1">
          <mxGeometry x="270" y="390" width="160" height="40" as="geometry" />
        </mxCell>
        <mxCell id="2aowwQOq8vRHXl7q1TRe-19" value="image becomes light weight, if container gone data will be on host, can attached to multiple container if need to host same app" style="text;html=1;align=center;verticalAlign=middle;whiteSpace=wrap;rounded=0;" vertex="1" parent="1">
          <mxGeometry x="146.89" y="480" width="403.11" height="40" as="geometry" />
        </mxCell>
      </root>
    </mxGraphModel>
  </diagram>
</mxfile>
